<?xml version="1.0" encoding="UTF-8" standalone="no"?><!DOCTYPE svg PUBLIC "-//W3C//DTD SVG 1.1//EN" "http://www.w3.org/Graphics/SVG/1.1/DTD/svg11.dtd"><svg width="100%" height="100%" viewBox="0 0 47 40" version="1.1" xmlns="http://www.w3.org/2000/svg" xmlns:xlink="http://www.w3.org/1999/xlink" xml:space="preserve" xmlns:serif="http://www.serif.com/" style="fill-rule:evenodd;clip-rule:evenodd;stroke-linejoin:round;stroke-miterlimit:2;"><g><rect x="31.235" y="13.202" width="15.086" height="5.927" style="fill:#151622 ;"/><rect x="13.544" y="34.062" width="15.086" height="5.927" style="fill:#151622 ;"/><rect x="31.235" y="20.713" width="15.086" height="19.186" style="fill:#151622 ;"/><path d="M28.63,19.238l0,13.239l-15.086,0l-0,-12.324l2.819,0.658c0.264,0.062 0.505,0.196 0.697,0.387c0.191,0.192 0.325,0.433 0.387,0.697l1.682,7.202l1.682,-7.202c0.062,-0.264 0.196,-0.505 0.387,-0.697c0.192,-0.191 0.433,-0.325 0.697,-0.387l6.735,-1.573Zm0,-0.218l-6.735,-1.573c-0.264,-0.062 -0.505,-0.196 -0.697,-0.387c-0.191,-0.192 -0.325,-0.433 -0.387,-0.697l-0.717,-3.071l8.536,-0l0,5.728Zm-10.466,-5.728l-0.717,3.071c-0.062,0.264 -0.196,0.505 -0.387,0.697c-0.192,0.191 -0.433,0.325 -0.697,0.387l-2.819,0.658l-0,-4.813l4.62,-0Z" style="fill:#151622 ;"/><path d="M22.751,15.507c-0,0 6.38,1.49 10.955,2.559c0.494,0.115 0.844,0.556 0.844,1.063c-0,0.507 -0.35,0.948 -0.844,1.063c-4.575,1.069 -10.955,2.559 -10.955,2.559c-0,-0 -1.49,6.38 -2.559,10.955c-0.115,0.494 -0.556,0.844 -1.063,0.844c-0.507,-0 -0.948,-0.35 -1.063,-0.844c-1.069,-4.575 -2.559,-10.955 -2.559,-10.955c0,-0 -6.38,-1.49 -10.955,-2.559c-0.494,-0.115 -0.844,-0.556 -0.844,-1.063c0,-0.507 0.35,-0.948 0.844,-1.063c4.575,-1.069 10.955,-2.559 10.955,-2.559c0,0 1.49,-6.38 2.559,-10.955c0.115,-0.494 0.556,-0.844 1.063,-0.844c0.507,0 0.948,0.35 1.063,0.844c1.069,4.575 2.559,10.955 2.559,10.955Zm-4.225,-3.765c0.065,-0.28 0.315,-0.478 0.603,-0.478c0.288,0 0.538,0.198 0.603,0.478c0.483,2.067 1.079,4.621 1.079,4.621c0.062,0.264 0.196,0.505 0.387,0.697c0.192,0.191 0.433,0.325 0.697,0.387c-0,-0 2.554,0.596 4.621,1.079c0.28,0.065 0.478,0.315 0.478,0.603c-0,0.288 -0.198,0.538 -0.478,0.603c-2.067,0.483 -4.621,1.079 -4.621,1.079c-0.264,0.062 -0.505,0.196 -0.697,0.387c-0.191,0.192 -0.325,0.433 -0.387,0.697c0,-0 -0.596,2.554 -1.079,4.621c-0.065,0.28 -0.315,0.478 -0.603,0.478c-0.288,-0 -0.538,-0.198 -0.603,-0.478c-0.483,-2.067 -1.079,-4.621 -1.079,-4.621c-0.062,-0.264 -0.196,-0.505 -0.387,-0.697c-0.192,-0.191 -0.433,-0.325 -0.697,-0.387c0,0 -2.554,-0.596 -4.621,-1.079c-0.28,-0.065 -0.478,-0.315 -0.478,-0.603c0,-0.288 0.198,-0.538 0.478,-0.603c2.067,-0.483 4.621,-1.079 4.621,-1.079c0.264,-0.062 0.505,-0.196 0.697,-0.387c0.191,-0.192 0.325,-0.433 0.387,-0.697c-0,0 0.596,-2.554 1.079,-4.621Z" style="fill:#151622 ;"/></g></svg>