<?xml version="1.0" encoding="UTF-8" standalone="no"?><!DOCTYPE svg PUBLIC "-//W3C//DTD SVG 1.1//EN" "http://www.w3.org/Graphics/SVG/1.1/DTD/svg11.dtd"><svg width="100%" height="100%" viewBox="0 0 32 36" version="1.1" xmlns="http://www.w3.org/2000/svg" xmlns:xlink="http://www.w3.org/1999/xlink" xml:space="preserve" xmlns:serif="http://www.serif.com/" style="fill-rule:evenodd;clip-rule:evenodd;stroke-linejoin:round;stroke-miterlimit:2;"><path d="M24.102,31.752l-20.412,0c-2.034,0 -3.69,-1.656 -3.69,-3.708l0,-24.336c0,-2.052 1.656,-3.708 3.69,-3.708l24.12,0c2.034,0 3.69,1.656 3.69,3.708l0,32.292l-3.87,-3.42l-2.178,-2.016l-2.304,-2.142l0.954,3.33Zm-3.24,-8.244c3.978,-0.126 5.508,-2.736 5.508,-2.736c0,-5.796 -2.592,-10.494 -2.592,-10.494c-2.592,-1.944 -5.058,-1.89 -5.058,-1.89l-0.252,0.288c3.06,0.936 4.482,2.286 4.482,2.286c-1.872,-1.026 -3.708,-1.53 -5.418,-1.728c-1.296,-0.144 -2.538,-0.108 -3.636,0.036l-0.306,0.036c-0.63,0.054 -2.16,0.288 -4.086,1.134l-1.062,0.522c0,0 1.494,-1.422 4.734,-2.358l-0.18,-0.216c0,0 -2.466,-0.054 -5.058,1.89c0,0 -2.592,4.698 -2.592,10.494c0,0 1.512,2.61 5.49,2.736l1.206,-1.494c-2.286,-0.684 -3.15,-2.124 -3.15,-2.124l0.504,0.306l0.072,0.054l0.072,0.039l0.018,0.012l0.072,0.039c0.45,0.252 0.9,0.45 1.314,0.612c0.738,0.288 1.62,0.576 2.646,0.774c1.35,0.252 2.934,0.342 4.662,0.018c0.846,-0.144 1.71,-0.396 2.61,-0.774c0.63,-0.234 1.332,-0.576 2.07,-1.062c0,0 -0.9,1.476 -3.258,2.142l1.188,1.458Zm-8.37,-8.406c-1.026,0 -1.836,0.9 -1.836,1.998c0,1.098 0.828,1.998 1.836,1.998c1.026,0 1.836,-0.9 1.836,-1.998c0.018,-1.098 -0.81,-1.998 -1.836,-1.998Zm6.57,0c-1.026,0 -1.836,0.9 -1.836,1.998c0,1.098 0.828,1.998 1.836,1.998c1.026,0 1.836,-0.9 1.836,-1.998c0,-1.098 -0.81,-1.998 -1.836,-1.998Z" style="fill:#151622 ;"/></svg>