<?xml version="1.0" encoding="UTF-8" standalone="no"?><!DOCTYPE svg PUBLIC "-//W3C//DTD SVG 1.1//EN" "http://www.w3.org/Graphics/SVG/1.1/DTD/svg11.dtd"><svg width="100%" height="100%" viewBox="0 0 47 35" version="1.1" xmlns="http://www.w3.org/2000/svg" xmlns:xlink="http://www.w3.org/1999/xlink" xml:space="preserve" xmlns:serif="http://www.serif.com/" style="fill-rule:evenodd;clip-rule:evenodd;stroke-linejoin:round;stroke-miterlimit:2;"><g><path d="M13.937,21.579c-0.506,-0.266 -0.914,-0.685 -1.167,-1.197c-0.847,-1.716 -2.908,-5.886 -4.444,-8.995c-0.432,-0.875 -0.419,-1.904 0.036,-2.768c0.454,-0.863 1.295,-1.457 2.262,-1.595c3.432,-0.494 8.036,-1.155 9.93,-1.427c0.565,-0.082 1.142,0.018 1.647,0.284c3.595,1.893 18.634,9.81 23.287,12.26c0.76,0.4 1.052,1.341 0.652,2.102c-1.566,2.974 -5.248,9.969 -6.814,12.943c-0.401,0.761 -1.342,1.053 -2.103,0.652c-4.652,-2.449 -19.691,-10.366 -23.286,-12.259Z" style="fill:#151622 ;"/><path d="M6.268,0.402c-4.694,1.456 -7.323,6.448 -5.866,11.142c1.456,4.694 6.448,7.322 11.142,5.866c4.694,-1.456 7.322,-6.449 5.866,-11.142c-1.456,-4.694 -6.449,-7.323 -11.142,-5.866Zm1.007,3.245c2.902,-0.9 5.989,0.725 6.889,3.628c0.901,2.902 -0.725,5.989 -3.627,6.889c-2.902,0.901 -5.989,-0.725 -6.89,-3.627c-0.9,-2.902 0.725,-5.989 3.628,-6.89Z" style="fill:#151622 ;"/></g></svg>