<?xml version="1.0" encoding="UTF-8" standalone="no"?><!DOCTYPE svg PUBLIC "-//W3C//DTD SVG 1.1//EN" "http://www.w3.org/Graphics/SVG/1.1/DTD/svg11.dtd"><svg width="100%" height="100%" viewBox="0 0 29 36" version="1.1" xmlns="http://www.w3.org/2000/svg" xmlns:xlink="http://www.w3.org/1999/xlink" xml:space="preserve" xmlns:serif="http://www.serif.com/" style="fill-rule:evenodd;clip-rule:evenodd;stroke-linejoin:round;stroke-miterlimit:2;"><g><rect x="12.393" y="19.376" width="2.92" height="11.25" style="fill:#151622 ;"/><path d="M26.977,32.086l0,-2.92l-26.25,0l0,2.92l26.25,-0Z" style="fill:#151622 ;"/><circle cx="13.852" cy="30.626" r="4.777" style="fill:#151622 ;"/><path d="M28.5,15.28c0,-1.564 -1.27,-2.835 -2.835,-2.835l-22.83,0c-1.565,0 -2.835,1.271 -2.835,2.835l0,5.67c0,1.565 1.27,2.836 2.835,2.836l22.83,-0c1.565,-0 2.835,-1.271 2.835,-2.836l0,-5.67Z" style="fill:#151622 ;"/><path d="M28.5,2.835c0,-1.565 -1.27,-2.835 -2.835,-2.835l-22.83,-0c-1.565,-0 -2.835,1.27 -2.835,2.835l0,5.67c0,1.565 1.27,2.835 2.835,2.835l22.83,0c1.565,0 2.835,-1.27 2.835,-2.835l0,-5.67Zm-25.495,0.17l0,5.33l22.49,-0l-0,-5.33l-22.49,0Z" style="fill:#151622 ;"/></g></svg>