<?xml version="1.0" encoding="UTF-8" standalone="no"?><!DOCTYPE svg PUBLIC "-//W3C//DTD SVG 1.1//EN" "http://www.w3.org/Graphics/SVG/1.1/DTD/svg11.dtd"><svg width="100%" height="100%" viewBox="0 0 38 45" version="1.1" xmlns="http://www.w3.org/2000/svg" xmlns:xlink="http://www.w3.org/1999/xlink" xml:space="preserve" xmlns:serif="http://www.serif.com/" style="fill-rule:evenodd;clip-rule:evenodd;stroke-linejoin:round;stroke-miterlimit:2;"><g><path d="M27.499,19.9c-4.15,1.288 -6.475,5.703 -5.187,9.854c1.287,4.15 5.703,6.475 9.853,5.187c4.151,-1.287 6.476,-5.703 5.188,-9.853c-1.288,-4.151 -5.703,-6.476 -9.854,-5.188Zm0.891,2.87c2.566,-0.796 5.296,0.642 6.093,3.208c0.796,2.567 -0.642,5.297 -3.208,6.093c-2.567,0.796 -5.297,-0.641 -6.093,-3.208c-0.796,-2.566 0.641,-5.296 3.208,-6.093Z" style="fill:#151622 ;"/><path d="M5.66,0l-5.66,3.252l6.935,12.071l5.66,-3.252l-6.935,-12.071Z" style="fill:#151622 ;"/><path d="M13.966,15.389l-2.9,5.848l12.473,6.184l2.899,-5.848l-12.472,-6.184Z" style="fill:#151622 ;"/><path d="M15.566,22.35l-6.527,-0.1l-0.213,13.92l6.527,0.099l0.213,-13.919Z" style="fill:#151622 ;"/><circle cx="12.521" cy="18.764" r="7.532" style="fill:#151622 ;"/><circle cx="11.871" cy="38.001" r="6.882" style="fill:#151622 ;"/></g></svg>