<?xml version="1.0" encoding="UTF-8" standalone="no"?><!DOCTYPE svg PUBLIC "-//W3C//DTD SVG 1.1//EN" "http://www.w3.org/Graphics/SVG/1.1/DTD/svg11.dtd"><svg width="100%" height="100%" viewBox="0 0 38 32" version="1.1" xmlns="http://www.w3.org/2000/svg" xmlns:xlink="http://www.w3.org/1999/xlink" xml:space="preserve" xmlns:serif="http://www.serif.com/" style="fill-rule:evenodd;clip-rule:evenodd;stroke-linejoin:round;stroke-miterlimit:2;"><path d="M29.988,8.363l7.512,-0l-0,4.464c-0,10.355 -8.395,18.75 -18.75,18.75l-0,-0c-10.355,-0 -18.75,-8.395 -18.75,-18.75l-0,-4.464l7.275,-0l-0,-8.363l9.436,0l-0,8.363l3.842,-0l-0,-8.363l9.435,0l0,8.363Zm4.512,4.407c-0,-0.393 -0.156,-0.77 -0.434,-1.048c-0.278,-0.277 -0.655,-0.434 -1.048,-0.434c-5.294,0 -23.242,0 -28.536,0c-0.393,0 -0.77,0.157 -1.048,0.434c-0.278,0.278 -0.434,0.655 -0.434,1.048c-0,0.012 -0,0.025 -0,0.037c0,0.393 0.156,0.77 0.434,1.048c0.278,0.277 0.655,0.433 1.048,0.433c5.294,0 23.242,0 28.536,0c0.393,0 0.77,-0.156 1.048,-0.433c0.278,-0.278 0.434,-0.655 0.434,-1.048c-0,-0.012 -0,-0.025 -0,-0.037Z" style="fill:#151622 ;"/></svg>