<?xml version="1.0" encoding="UTF-8" standalone="no"?><!DOCTYPE svg PUBLIC "-//W3C//DTD SVG 1.1//EN" "http://www.w3.org/Graphics/SVG/1.1/DTD/svg11.dtd"><svg width="100%" height="100%" viewBox="0 0 42 36" version="1.1" xmlns="http://www.w3.org/2000/svg" xmlns:xlink="http://www.w3.org/1999/xlink" xml:space="preserve" xmlns:serif="http://www.serif.com/" style="fill-rule:evenodd;clip-rule:evenodd;stroke-linecap:round;stroke-linejoin:round;stroke-miterlimit:2;"><g><path d="M28.358,3.816c1.929,-2.455 5.398,-3.263 8.259,-1.757c3.223,1.697 4.462,5.691 2.765,8.913c-0.446,0.848 -1.052,1.559 -1.761,2.115c-1.081,-3.443 -3.469,-6.477 -6.912,-8.289c-0.766,-0.404 -1.553,-0.73 -2.351,-0.982Z" style="fill:none;stroke:#151622 ;stroke-width:2.6px;"/><path d="M3.816,13.084c-2.455,-1.929 -3.263,-5.398 -1.757,-8.26c1.697,-3.222 5.691,-4.461 8.913,-2.765c0.848,0.447 1.559,1.053 2.115,1.761c-3.443,1.082 -6.477,3.47 -8.289,6.912c-0.404,0.767 -0.73,1.553 -0.982,2.352Z" style="fill:none;stroke:#151622 ;stroke-width:2.6px;"/><path d="M16.212,5.627c-8.022,2.489 -12.514,11.021 -10.025,19.043c2.488,8.022 11.021,12.514 19.042,10.025c8.022,-2.488 12.514,-11.021 10.026,-19.042c-2.489,-8.022 -11.021,-12.514 -19.043,-10.026Zm1.884,18.085l9.945,-12.575c0.121,-0.154 0.339,-0.189 0.502,-0.081c0.163,0.108 0.216,0.322 0.123,0.494c-2.831,5.199 -7.709,14.158 -9.427,17.314c-0.141,0.258 -0.399,0.43 -0.691,0.46c-0.293,0.03 -0.581,-0.085 -0.771,-0.309c-1.264,-1.489 -3.646,-4.294 -4.958,-5.84c-0.11,-0.13 -0.119,-0.318 -0.022,-0.458c0.098,-0.14 0.278,-0.197 0.439,-0.138c1.214,0.446 2.947,1.083 3.854,1.417c0.361,0.133 0.767,0.018 1.006,-0.284Z" style="fill:#151622 ;"/></g></svg>