<?xml version="1.0" encoding="UTF-8" standalone="no"?><!DOCTYPE svg PUBLIC "-//W3C//DTD SVG 1.1//EN" "http://www.w3.org/Graphics/SVG/1.1/DTD/svg11.dtd"><svg width="100%" height="100%" viewBox="0 0 32 34" version="1.1" xmlns="http://www.w3.org/2000/svg" xmlns:xlink="http://www.w3.org/1999/xlink" xml:space="preserve" xmlns:serif="http://www.serif.com/" style="fill-rule:evenodd;clip-rule:evenodd;stroke-linejoin:round;stroke-miterlimit:2;"><g><path d="M14.598,5.672c0,-2.372 -1.926,-4.299 -4.299,-4.299c0,0 -6,0 -6,0c-2.373,0 -4.299,1.927 -4.299,4.299l0,6c0,2.373 1.926,4.3 4.299,4.3l6,-0c2.373,-0 4.299,-1.927 4.299,-4.3c0,0 0,-6 0,-6Zm-2.598,0l0,6c0,0.939 -0.762,1.701 -1.701,1.701c0,0 -6,0 -6,0c-0.938,0 -1.701,-0.762 -1.701,-1.701c0,0 0,-6 0,-6c0,-0.938 0.763,-1.7 1.701,-1.7l6,-0c0.939,-0 1.701,0.762 1.701,1.7Z" style="fill:#151622 ;"/><path d="M14.598,28.661c0,2.015 -1.635,3.65 -3.649,3.65l-7.299,0c-2.015,0 -3.65,-1.635 -3.65,-3.65l0,-7.299c0,-2.014 1.635,-3.649 3.65,-3.649l7.299,-0c2.014,-0 3.649,1.635 3.649,3.649l0,7.299Z" style="fill:#151622 ;"/><path d="M31.879,4.549c-0,-2.51 -2.039,-4.549 -4.55,-4.549c0,-0 -7.06,-0 -7.06,-0c-2.511,-0 -4.549,2.039 -4.549,4.549l-0,7.061c-0,2.511 2.038,4.549 4.549,4.549l7.06,0c2.511,0 4.55,-2.038 4.55,-4.549l-0,-7.061Zm-2.039,0l0,7.061c0,1.386 -1.125,2.511 -2.511,2.511c0,-0 -7.06,-0 -7.06,-0c-1.386,-0 -2.511,-1.125 -2.511,-2.511c0,-0 0,-7.061 0,-7.061c0,-1.385 1.125,-2.511 2.511,-2.511l7.06,0c1.386,0 2.511,1.126 2.511,2.511Z" style="fill:#151622 ;"/><path d="M31.879,29.644c-0,2.23 -1.81,4.04 -4.04,4.04l-8.08,0c-2.229,0 -4.039,-1.81 -4.039,-4.04l-0,-8.079c-0,-2.23 1.81,-4.04 4.039,-4.04l8.08,0c2.23,0 4.04,1.81 4.04,4.04l-0,8.079Z" style="fill:#151622 ;"/></g></svg>