<?xml version="1.0" encoding="UTF-8" standalone="no"?><!DOCTYPE svg PUBLIC "-//W3C//DTD SVG 1.1//EN" "http://www.w3.org/Graphics/SVG/1.1/DTD/svg11.dtd"><svg width="100%" height="100%" viewBox="0 0 312 333" version="1.1" xmlns="http://www.w3.org/2000/svg" xmlns:xlink="http://www.w3.org/1999/xlink" xml:space="preserve" xmlns:serif="http://www.serif.com/" style="fill-rule:evenodd;clip-rule:evenodd;stroke-linejoin:round;stroke-miterlimit:2;"><g id="Logo-2" serif:id="Logo 2"><path d="M155.864,13.658l-143.283,60.554l143.283,60.554l143.283,-60.554l-143.283,-60.554Z" style="fill:#747aac;"/><path d="M299.147,74.212l-143.283,60.554l-0,183.648l143.283,-60.554l-0,-183.648Z" style="fill:#747aac;"/><path d="M155.864,134.766l-143.283,-60.554l-0,183.648l143.283,60.554l-0,-183.648Z" style="fill:#4c5280;"/><path d="M155.864,-0l-155.864,65.871l-0,200.33l155.864,65.871l155.864,-65.871l-0,-200.33l-155.864,-65.871Zm-130.702,82.554l-0,166.965l130.702,55.237l130.702,-55.237l-0,-166.965l-130.702,-55.237l-130.702,55.237Z" style="fill:#151622;"/><path d="M12.581,129.796l24.101,41.076l0,97.174l-24.101,-10.186l-0,-128.064Z" style="fill:#151622;"/><path d="M155.864,190.35l-29.951,18.233l-0.115,97.124l30.066,12.707l-0,-128.064Z" style="fill:#151622;"/><path d="M155.864,121.108l138.385,-58.484l9.795,23.177l-148.18,62.624l-148.181,-62.624l9.796,-23.177l138.385,58.484Z" style="fill:#151622;"/><rect x="143.283" y="134.766" width="25.162" height="175.711" style="fill:#151622;"/><path d="M299.147,129.796l-24.101,41.076l-0,97.174l24.101,-10.186l-0,-128.064Z" style="fill:#151622;"/><path d="M155.864,190.35l29.951,18.233l0.115,97.124l-30.066,12.707l-0,-128.064Z" style="fill:#151622;"/><g><path d="M191.307,150.925c6.259,-2.645 11.341,1.721 11.341,9.744c0,8.023 -5.082,16.684 -11.341,19.33c-6.26,2.645 -11.342,-1.721 -11.342,-9.744c0,-8.023 5.082,-16.684 11.342,-19.33Z" style="fill:#151622;"/><path d="M263.704,120.329c6.26,-2.646 11.342,1.72 11.342,9.743c-0,8.024 -5.082,16.685 -11.342,19.33c-6.26,2.646 -11.342,-1.72 -11.342,-9.743c0,-8.023 5.082,-16.685 11.342,-19.33Z" style="fill:#151622;"/></g><path d="M247.769,149.304c-0,-5.105 -3.517,-7.764 -7.849,-5.933l-24.829,10.493c-4.332,1.831 -7.849,7.462 -7.849,12.567c0,5.106 3.517,7.764 7.849,5.934l24.829,-10.494c4.332,-1.83 7.849,-7.462 7.849,-12.567Z" style="fill:#151622;"/></g></svg>