<?xml version="1.0" encoding="UTF-8" standalone="no"?><!DOCTYPE svg PUBLIC "-//W3C//DTD SVG 1.1//EN" "http://www.w3.org/Graphics/SVG/1.1/DTD/svg11.dtd"><svg width="100%" height="100%" viewBox="0 0 312 77" version="1.1" xmlns="http://www.w3.org/2000/svg" xmlns:xlink="http://www.w3.org/1999/xlink" xml:space="preserve" xmlns:serif="http://www.serif.com/" style="fill-rule:evenodd;clip-rule:evenodd;stroke-linejoin:round;stroke-miterlimit:2;"><g id="Logo"><g><path d="M62.724,15.033l0,-13.761l-56.039,-0l-0,74.158l17.152,-0l0,-27.02l34.331,0l-0,-13.761l-34.331,-0l0,-19.616l38.887,-0Z" style="fill:#747aac;fill-rule:nonzero;"/><path d="M109.565,76.701c23.317,0 40.575,-16.199 40.575,-38.35c0,-22.152 -17.258,-38.351 -40.575,-38.351c-23.424,-0 -40.576,16.305 -40.576,38.351c-0,22.045 17.152,38.35 40.576,38.35Zm-0,-14.609c-13.249,0 -23.212,-9.645 -23.212,-23.741c-0,-14.097 9.963,-23.742 23.212,-23.742c13.248,0 23.211,9.645 23.211,23.742c0,14.096 -9.963,23.741 -23.211,23.741Z" style="fill:#374fc3;fill-rule:nonzero;"/><path d="M228.762,75.43l-16.624,-23.838c9.635,-4.128 15.246,-12.282 15.246,-23.414c0,-16.638 -12.387,-26.906 -32.204,-26.906l-32.099,-0l-0,74.158l17.152,-0l-0,-20.662l15.795,-0l14.31,20.662l18.424,-0Zm-18.742,-47.252c0,8.057 -5.3,12.934 -15.795,12.934l-13.992,0l-0,-25.867l13.992,-0c10.495,-0 15.795,4.77 15.795,12.933Z" style="fill:#374fc3;fill-rule:nonzero;"/><path d="M291.702,75.43l20.026,-0l-32.53,-41.105l30.729,-33.053l-19.073,-0l-32.847,34.642l-0,-34.642l-17.047,-0l0,74.158l17.047,-0l-0,-18.752l9.96,-10.382l23.735,29.134Z" style="fill:#747aac;fill-rule:nonzero;"/></g><path d="M13.37,19.741c-0,-1.093 -0.887,-1.98 -1.98,-1.98l-9.41,-0c-1.093,-0 -1.98,0.887 -1.98,1.98l0,37.219c0,1.093 0.887,1.98 1.98,1.98l9.41,0c1.093,0 1.98,-0.887 1.98,-1.98l-0,-37.219Z" style="fill:#151622;"/><path d="M169.765,19.741c0,-1.093 -0.887,-1.98 -1.98,-1.98l-9.409,-0c-1.093,-0 -1.98,0.887 -1.98,1.98l-0,37.219c-0,1.093 0.887,1.98 1.98,1.98l9.409,0c1.093,0 1.98,-0.887 1.98,-1.98l0,-37.219Z" style="fill:#151622;"/><path d="M78.439,28.107c0.425,-2.022 -0.084,-4.127 -1.385,-5.731c-1.302,-1.604 -3.257,-2.535 -5.323,-2.535c-0,-0.1 -0,-0.1 -0,-0.1c-2.638,-0 -4.933,1.803 -5.556,4.366c-2.181,9.502 -2.133,18.997 0.055,28.491c0.609,2.542 2.882,4.334 5.495,4.334c0.003,0.028 0.005,0.028 0.008,0.028c2.088,-0.001 4.065,-0.944 5.38,-2.567c1.314,-1.624 1.825,-3.753 1.392,-5.797c-1.459,-6.815 -1.424,-13.652 -0.066,-20.489Z" style="fill:#151622;"/><path d="M247.645,19.741c0,-1.093 -0.887,-1.98 -1.98,-1.98l-9.409,-0c-1.093,-0 -1.98,0.887 -1.98,1.98l-0,37.219c-0,1.093 0.887,1.98 1.98,1.98l9.409,0c1.093,0 1.98,-0.887 1.98,-1.98l0,-37.219Z" style="fill:#151622;"/></g></svg>